<mxfile host="app.diagrams.net" agent="Mozilla/5.0 (Windows NT 10.0; Win64; x64) AppleWebKit/537.36 (KHTML, like Gecko) Chrome/134.0.0.0 Safari/537.36" version="26.2.1">
  <diagram name="Page-1" id="JjwYV-2-WhGtSMynj6jV">
    <mxGraphModel dx="769" dy="488" grid="1" gridSize="10" guides="1" tooltips="1" connect="1" arrows="1" fold="1" page="1" pageScale="1" pageWidth="850" pageHeight="1100" math="0" shadow="0">
      <root>
        <mxCell id="0" />
        <mxCell id="1" parent="0" />
        <mxCell id="ryiCbgdc5XsMvu-ZzsFq-13" style="edgeStyle=orthogonalEdgeStyle;rounded=0;orthogonalLoop=1;jettySize=auto;html=1;exitX=1;exitY=0.5;exitDx=0;exitDy=0;" edge="1" parent="1" source="ryiCbgdc5XsMvu-ZzsFq-14" target="ryiCbgdc5XsMvu-ZzsFq-18">
          <mxGeometry relative="1" as="geometry" />
        </mxCell>
        <mxCell id="ryiCbgdc5XsMvu-ZzsFq-30" style="edgeStyle=orthogonalEdgeStyle;rounded=0;orthogonalLoop=1;jettySize=auto;html=1;exitX=0.5;exitY=1;exitDx=0;exitDy=0;" edge="1" parent="1" source="ryiCbgdc5XsMvu-ZzsFq-14" target="ryiCbgdc5XsMvu-ZzsFq-29">
          <mxGeometry relative="1" as="geometry" />
        </mxCell>
        <mxCell id="ryiCbgdc5XsMvu-ZzsFq-14" value="admin login" style="rounded=1;whiteSpace=wrap;html=1;" vertex="1" parent="1">
          <mxGeometry x="242" y="121" width="100" height="39" as="geometry" />
        </mxCell>
        <mxCell id="ryiCbgdc5XsMvu-ZzsFq-15" value="admin" style="rounded=0;whiteSpace=wrap;html=1;" vertex="1" parent="1">
          <mxGeometry x="40" y="125" width="100" height="30" as="geometry" />
        </mxCell>
        <mxCell id="ryiCbgdc5XsMvu-ZzsFq-16" value="" style="endArrow=none;html=1;rounded=0;exitX=0;exitY=0.25;exitDx=0;exitDy=0;entryX=1;entryY=0.348;entryDx=0;entryDy=0;entryPerimeter=0;" edge="1" parent="1">
          <mxGeometry width="50" height="50" relative="1" as="geometry">
            <mxPoint x="242" y="133.25" as="sourcePoint" />
            <mxPoint x="342" y="133.44" as="targetPoint" />
          </mxGeometry>
        </mxCell>
        <mxCell id="ryiCbgdc5XsMvu-ZzsFq-17" style="edgeStyle=orthogonalEdgeStyle;rounded=0;orthogonalLoop=1;jettySize=auto;html=1;exitX=0.5;exitY=1;exitDx=0;exitDy=0;" edge="1" parent="1" source="ryiCbgdc5XsMvu-ZzsFq-18" target="ryiCbgdc5XsMvu-ZzsFq-22">
          <mxGeometry relative="1" as="geometry" />
        </mxCell>
        <mxCell id="ryiCbgdc5XsMvu-ZzsFq-18" value="product/stock" style="rounded=0;whiteSpace=wrap;html=1;" vertex="1" parent="1">
          <mxGeometry x="410" y="125" width="100" height="30" as="geometry" />
        </mxCell>
        <mxCell id="ryiCbgdc5XsMvu-ZzsFq-19" style="edgeStyle=orthogonalEdgeStyle;rounded=0;orthogonalLoop=1;jettySize=auto;html=1;exitX=0.5;exitY=1;exitDx=0;exitDy=0;" edge="1" parent="1" source="ryiCbgdc5XsMvu-ZzsFq-15" target="ryiCbgdc5XsMvu-ZzsFq-15">
          <mxGeometry relative="1" as="geometry" />
        </mxCell>
        <mxCell id="ryiCbgdc5XsMvu-ZzsFq-20" value="&lt;span style=&quot;white-space: pre;&quot;&gt;&#x9;&lt;/span&gt;&amp;nbsp;stock" style="html=1;dashed=0;whiteSpace=wrap;shape=mxgraph.dfd.dataStoreID;align=left;spacingLeft=3;points=[[0,0],[0.5,0],[1,0],[0,0.5],[1,0.5],[0,1],[0.5,1],[1,1]];" vertex="1" parent="1">
          <mxGeometry x="410" y="300" width="100" height="30" as="geometry" />
        </mxCell>
        <mxCell id="ryiCbgdc5XsMvu-ZzsFq-21" style="edgeStyle=orthogonalEdgeStyle;rounded=0;orthogonalLoop=1;jettySize=auto;html=1;exitX=0.5;exitY=1;exitDx=0;exitDy=0;" edge="1" parent="1" source="ryiCbgdc5XsMvu-ZzsFq-22" target="ryiCbgdc5XsMvu-ZzsFq-20">
          <mxGeometry relative="1" as="geometry" />
        </mxCell>
        <mxCell id="ryiCbgdc5XsMvu-ZzsFq-22" value="update product&lt;div&gt;stock&lt;/div&gt;" style="rounded=1;whiteSpace=wrap;html=1;" vertex="1" parent="1">
          <mxGeometry x="410" y="200" width="100" height="50" as="geometry" />
        </mxCell>
        <mxCell id="ryiCbgdc5XsMvu-ZzsFq-23" value="" style="endArrow=none;html=1;rounded=0;exitX=0;exitY=0.25;exitDx=0;exitDy=0;entryX=1;entryY=0.348;entryDx=0;entryDy=0;entryPerimeter=0;" edge="1" parent="1">
          <mxGeometry width="50" height="50" relative="1" as="geometry">
            <mxPoint x="410" y="213" as="sourcePoint" />
            <mxPoint x="510" y="213.19" as="targetPoint" />
          </mxGeometry>
        </mxCell>
        <mxCell id="ryiCbgdc5XsMvu-ZzsFq-24" style="edgeStyle=orthogonalEdgeStyle;rounded=0;orthogonalLoop=1;jettySize=auto;html=1;exitX=1;exitY=0.5;exitDx=0;exitDy=0;" edge="1" parent="1" source="ryiCbgdc5XsMvu-ZzsFq-15" target="ryiCbgdc5XsMvu-ZzsFq-14">
          <mxGeometry relative="1" as="geometry" />
        </mxCell>
        <mxCell id="ryiCbgdc5XsMvu-ZzsFq-25" value="id, pwd" style="text;strokeColor=none;align=center;fillColor=none;html=1;verticalAlign=middle;whiteSpace=wrap;rounded=0;" vertex="1" parent="1">
          <mxGeometry x="153" y="116.5" width="60" height="30" as="geometry" />
        </mxCell>
        <mxCell id="ryiCbgdc5XsMvu-ZzsFq-26" value="visit" style="text;strokeColor=none;align=center;fillColor=none;html=1;verticalAlign=middle;whiteSpace=wrap;rounded=0;" vertex="1" parent="1">
          <mxGeometry x="342" y="116.5" width="60" height="30" as="geometry" />
        </mxCell>
        <mxCell id="ryiCbgdc5XsMvu-ZzsFq-27" value="models" style="text;strokeColor=none;align=center;fillColor=none;html=1;verticalAlign=middle;whiteSpace=wrap;rounded=0;" vertex="1" parent="1">
          <mxGeometry x="452" y="160" width="60" height="30" as="geometry" />
        </mxCell>
        <mxCell id="ryiCbgdc5XsMvu-ZzsFq-28" value="quantity" style="text;strokeColor=none;align=center;fillColor=none;html=1;verticalAlign=middle;whiteSpace=wrap;rounded=0;" vertex="1" parent="1">
          <mxGeometry x="453" y="257" width="60" height="30" as="geometry" />
        </mxCell>
        <mxCell id="ryiCbgdc5XsMvu-ZzsFq-34" style="edgeStyle=orthogonalEdgeStyle;rounded=0;orthogonalLoop=1;jettySize=auto;html=1;exitX=0.5;exitY=1;exitDx=0;exitDy=0;" edge="1" parent="1" source="ryiCbgdc5XsMvu-ZzsFq-29" target="ryiCbgdc5XsMvu-ZzsFq-32">
          <mxGeometry relative="1" as="geometry" />
        </mxCell>
        <mxCell id="ryiCbgdc5XsMvu-ZzsFq-29" value="order history" style="rounded=0;whiteSpace=wrap;html=1;" vertex="1" parent="1">
          <mxGeometry x="242" y="210" width="100" height="30" as="geometry" />
        </mxCell>
        <mxCell id="ryiCbgdc5XsMvu-ZzsFq-31" value="visit" style="text;strokeColor=none;align=center;fillColor=none;html=1;verticalAlign=middle;whiteSpace=wrap;rounded=0;" vertex="1" parent="1">
          <mxGeometry x="276" y="170" width="60" height="30" as="geometry" />
        </mxCell>
        <mxCell id="ryiCbgdc5XsMvu-ZzsFq-37" style="edgeStyle=orthogonalEdgeStyle;rounded=0;orthogonalLoop=1;jettySize=auto;html=1;exitX=0.5;exitY=1;exitDx=0;exitDy=0;entryX=0.5;entryY=0;entryDx=0;entryDy=0;" edge="1" parent="1" source="ryiCbgdc5XsMvu-ZzsFq-32" target="ryiCbgdc5XsMvu-ZzsFq-36">
          <mxGeometry relative="1" as="geometry" />
        </mxCell>
        <mxCell id="ryiCbgdc5XsMvu-ZzsFq-32" value="&lt;div&gt;&lt;br&gt;&lt;/div&gt;update order&lt;div&gt;&lt;br&gt;&lt;/div&gt;" style="rounded=1;whiteSpace=wrap;html=1;" vertex="1" parent="1">
          <mxGeometry x="242" y="280" width="100" height="50" as="geometry" />
        </mxCell>
        <mxCell id="ryiCbgdc5XsMvu-ZzsFq-33" value="" style="endArrow=none;html=1;rounded=0;exitX=0;exitY=0.25;exitDx=0;exitDy=0;entryX=1;entryY=0.348;entryDx=0;entryDy=0;entryPerimeter=0;" edge="1" parent="1">
          <mxGeometry width="50" height="50" relative="1" as="geometry">
            <mxPoint x="242" y="290" as="sourcePoint" />
            <mxPoint x="342" y="290.19" as="targetPoint" />
          </mxGeometry>
        </mxCell>
        <mxCell id="ryiCbgdc5XsMvu-ZzsFq-35" value="&amp;nbsp; &amp;nbsp; &amp;nbsp;orders" style="text;strokeColor=none;align=center;fillColor=none;html=1;verticalAlign=middle;whiteSpace=wrap;rounded=0;" vertex="1" parent="1">
          <mxGeometry x="275" y="243" width="60" height="30" as="geometry" />
        </mxCell>
        <mxCell id="ryiCbgdc5XsMvu-ZzsFq-36" value="&lt;span style=&quot;white-space: pre;&quot;&gt;&#x9;&lt;/span&gt;&amp;nbsp; &amp;nbsp;orders" style="html=1;dashed=0;whiteSpace=wrap;shape=mxgraph.dfd.dataStoreID;align=left;spacingLeft=3;points=[[0,0],[0.5,0],[1,0],[0,0.5],[1,0.5],[0,1],[0.5,1],[1,1]];" vertex="1" parent="1">
          <mxGeometry x="242" y="370" width="100" height="30" as="geometry" />
        </mxCell>
        <mxCell id="ryiCbgdc5XsMvu-ZzsFq-38" value="&amp;nbsp; &amp;nbsp; &amp;nbsp;status" style="text;strokeColor=none;align=center;fillColor=none;html=1;verticalAlign=middle;whiteSpace=wrap;rounded=0;" vertex="1" parent="1">
          <mxGeometry x="274" y="334" width="60" height="30" as="geometry" />
        </mxCell>
      </root>
    </mxGraphModel>
  </diagram>
</mxfile>
